<mxfile host="app.diagrams.net" modified="2022-12-05T05:55:56.959Z" agent="5.0 (Windows NT 10.0; Win64; x64) AppleWebKit/537.36 (KHTML, like Gecko) Chrome/108.0.0.0 Safari/537.36" etag="e9tsBUXeCLBYya9umUKI" version="20.6.0" type="github">
  <diagram name="Page-1" id="5d7acffa-a066-3a61-03fe-96351882024d">
    <mxGraphModel dx="2018" dy="1276" grid="1" gridSize="10" guides="1" tooltips="1" connect="1" arrows="1" fold="1" page="1" pageScale="1" pageWidth="1100" pageHeight="850" background="#ffffff" math="0" shadow="0">
      <root>
        <mxCell id="0" />
        <mxCell id="1" parent="0" />
        <mxCell id="9ToVT2cuZ5Fz3vw_vygJ-31" style="edgeStyle=orthogonalEdgeStyle;rounded=0;orthogonalLoop=1;jettySize=auto;html=1;exitX=0.5;exitY=0.5;exitDx=0;exitDy=15;exitPerimeter=0;entryX=0.4;entryY=0.1;entryDx=0;entryDy=0;entryPerimeter=0;" edge="1" parent="1" source="9ToVT2cuZ5Fz3vw_vygJ-21" target="9ToVT2cuZ5Fz3vw_vygJ-22">
          <mxGeometry relative="1" as="geometry" />
        </mxCell>
        <mxCell id="9ToVT2cuZ5Fz3vw_vygJ-21" value="Client" style="html=1;dashed=0;whitespace=wrap;shape=mxgraph.dfd.start" vertex="1" parent="1">
          <mxGeometry x="410" y="20" width="80" height="30" as="geometry" />
        </mxCell>
        <mxCell id="9ToVT2cuZ5Fz3vw_vygJ-27" style="edgeStyle=orthogonalEdgeStyle;rounded=0;orthogonalLoop=1;jettySize=auto;html=1;exitX=0.31;exitY=0.8;exitDx=0;exitDy=0;exitPerimeter=0;entryX=0.5;entryY=0;entryDx=0;entryDy=0;" edge="1" parent="1" source="9ToVT2cuZ5Fz3vw_vygJ-22" target="9ToVT2cuZ5Fz3vw_vygJ-23">
          <mxGeometry relative="1" as="geometry" />
        </mxCell>
        <mxCell id="9ToVT2cuZ5Fz3vw_vygJ-28" style="edgeStyle=orthogonalEdgeStyle;rounded=0;orthogonalLoop=1;jettySize=auto;html=1;exitX=0.8;exitY=0.8;exitDx=0;exitDy=0;exitPerimeter=0;entryX=0.5;entryY=0;entryDx=0;entryDy=0;" edge="1" parent="1" source="9ToVT2cuZ5Fz3vw_vygJ-22" target="9ToVT2cuZ5Fz3vw_vygJ-24">
          <mxGeometry relative="1" as="geometry" />
        </mxCell>
        <mxCell id="9ToVT2cuZ5Fz3vw_vygJ-29" style="edgeStyle=orthogonalEdgeStyle;rounded=0;orthogonalLoop=1;jettySize=auto;html=1;exitX=0.96;exitY=0.7;exitDx=0;exitDy=0;exitPerimeter=0;entryX=0.5;entryY=0;entryDx=0;entryDy=0;" edge="1" parent="1" source="9ToVT2cuZ5Fz3vw_vygJ-22" target="9ToVT2cuZ5Fz3vw_vygJ-25">
          <mxGeometry relative="1" as="geometry" />
        </mxCell>
        <mxCell id="9ToVT2cuZ5Fz3vw_vygJ-22" value="Lowest Latency&lt;br&gt;DNS Routing" style="shape=cloud;whiteSpace=wrap;html=1;" vertex="1" parent="1">
          <mxGeometry x="440" y="90" width="120" height="120" as="geometry" />
        </mxCell>
        <mxCell id="9ToVT2cuZ5Fz3vw_vygJ-23" value="Ingress" style="html=1;dashed=0;whitespace=wrap;" vertex="1" parent="1">
          <mxGeometry x="400" y="260" width="100" height="50" as="geometry" />
        </mxCell>
        <mxCell id="9ToVT2cuZ5Fz3vw_vygJ-24" value="Ingress" style="html=1;dashed=0;whitespace=wrap;" vertex="1" parent="1">
          <mxGeometry x="850" y="260" width="100" height="50" as="geometry" />
        </mxCell>
        <mxCell id="9ToVT2cuZ5Fz3vw_vygJ-25" value="Ingress" style="html=1;dashed=0;whitespace=wrap;" vertex="1" parent="1">
          <mxGeometry x="970" y="260" width="100" height="50" as="geometry" />
        </mxCell>
        <mxCell id="9ToVT2cuZ5Fz3vw_vygJ-32" value="Media&lt;br&gt;Demultiplexer" style="shape=rhombus;html=1;dashed=0;whitespace=wrap;perimeter=rhombusPerimeter;" vertex="1" parent="1">
          <mxGeometry x="240" y="470" width="120" height="100" as="geometry" />
        </mxCell>
        <mxCell id="9ToVT2cuZ5Fz3vw_vygJ-33" value="Input Transcoder" style="html=1;dashed=0;whitespace=wrap;" vertex="1" parent="1">
          <mxGeometry x="40" y="630" width="100" height="50" as="geometry" />
        </mxCell>
        <mxCell id="9ToVT2cuZ5Fz3vw_vygJ-34" value="Video Process&lt;br&gt;1" style="html=1;dashed=0;whitespace=wrap;" vertex="1" parent="1">
          <mxGeometry x="40" y="740" width="100" height="50" as="geometry" />
        </mxCell>
        <mxCell id="9ToVT2cuZ5Fz3vw_vygJ-35" value="Video Process&lt;br&gt;1" style="html=1;dashed=0;whitespace=wrap;" vertex="1" parent="1">
          <mxGeometry x="40" y="840" width="100" height="50" as="geometry" />
        </mxCell>
        <mxCell id="9ToVT2cuZ5Fz3vw_vygJ-36" value="Output Transcoder" style="html=1;dashed=0;whitespace=wrap;" vertex="1" parent="1">
          <mxGeometry x="40" y="940" width="100" height="50" as="geometry" />
        </mxCell>
        <mxCell id="9ToVT2cuZ5Fz3vw_vygJ-37" value="Job Coordinator" style="html=1;dashed=0;whitespace=wrap;" vertex="1" parent="1">
          <mxGeometry x="400" y="400" width="100" height="50" as="geometry" />
        </mxCell>
        <mxCell id="9ToVT2cuZ5Fz3vw_vygJ-38" value="Lossless Audio&lt;br&gt;Transcoder" style="html=1;dashed=0;whitespace=wrap;" vertex="1" parent="1">
          <mxGeometry x="380" y="630" width="100" height="50" as="geometry" />
        </mxCell>
        <mxCell id="9ToVT2cuZ5Fz3vw_vygJ-39" value="Imagick to PNG" style="html=1;dashed=0;whitespace=wrap;" vertex="1" parent="1">
          <mxGeometry x="550" y="630" width="100" height="50" as="geometry" />
        </mxCell>
        <mxCell id="9ToVT2cuZ5Fz3vw_vygJ-40" value="Frame Extraction" style="html=1;dashed=0;whitespace=wrap;" vertex="1" parent="1">
          <mxGeometry x="210" y="630" width="100" height="50" as="geometry" />
        </mxCell>
      </root>
    </mxGraphModel>
  </diagram>
</mxfile>
